# xmcd
# 
# Track frame offsets:
#   150
#   17840
#   36792
#   54957
#   72902
#   94555
#   111200
#   129655
#   143905
#   158907
#   174035
#   188172
#   203372
#   218832
# 
# Disc length: 3107 seconds
# 
# Revision: 2
# Processed by: cddbd v1.5.1PL2 Copyright (c) Steve Scherf et al.
# Submitted via: Synapstar 1.0 
# 
DISCID=b60c210e
DTITLE=Various Artist - SD-P039
DYEAR=1900
DGENRE=Country
TTITLE0=George Strait - Carrying Your Love With Me
TTITLE1=Clint Black and Martina McBride - Still Holding On
TTITLE2=Jeff Carson - Butterfly Kisses
TTITLE3=LeAnn Rimes - How Do I Live Without Your Love
TTITLE4=Alabama - Dancin' Shaggin' On The Boulevard
TTITLE5=Lonestar - Come Cryin' On Me
TTITLE6=Toby Keith - We Were In Love
TTITLE7=Michael Peterson - Drink, Swear, Steal and Lie
TTITLE8=Terri Clark - Just The Same
TTITLE9=Mark Wills - Places I've Never Been
TTITLE10=Billy Yates - Flowers
TTITLE11=David Kersh - Day In, Day Out
TTITLE12=Neal McCoy - The Shake
TTITLE13=James Bonamy - The Swing
EXTD=MediaType: Karaoke CD+G Producer: StarDisc
EXTT0=
EXTT1=
EXTT2=
EXTT3=
EXTT4=
EXTT5=
EXTT6=
EXTT7=
EXTT8=
EXTT9=
EXTT10=
EXTT11=
EXTT12=
EXTT13=
PLAYORDER=
